<?xml version="1.0" encoding="utf-8"?>
<!-- Generator: Adobe Illustrator 17.0.0, SVG Export Plug-In . SVG Version: 6.00 Build 0)  -->
<!DOCTYPE svg PUBLIC "-//W3C//DTD SVG 1.1//EN" "http://www.w3.org/Graphics/SVG/1.1/DTD/svg11.dtd">
<svg version="1.1" id="Layer_1" xmlns="http://www.w3.org/2000/svg" xmlns:xlink="http://www.w3.org/1999/xlink" x="0px" y="0px"
	 width="532px" height="220px" viewBox="0 -3.251 532 220" enable-background="new 0 -3.251 532 220" xml:space="preserve">
<g>
	<g>
		<path fill="#0F8694" d="M429.588,205.051h-2.34c-4.422,0-8.02-3.597-8.02-8.019s3.598-8.019,8.02-8.019h2.34c0.553,0,1,0.448,1,1
			s-0.447,1-1,1h-2.34c-3.319,0-6.02,2.7-6.02,6.019s2.7,6.019,6.02,6.019h2.34c0.553,0,1,0.448,1,1
			S430.141,205.051,429.588,205.051z"/>
	</g>
	<g>
		<path fill="#0F8694" d="M455.324,216.749h-21.057c-3.132,0-5.68-2.548-5.68-5.679v-25.736c0-0.552,0.447-1,1-1h30.416
			c0.553,0,1,0.448,1,1v25.736C461.004,214.201,458.456,216.749,455.324,216.749z M430.588,186.333v24.736
			c0,2.029,1.65,3.679,3.68,3.679h21.057c2.029,0,3.68-1.65,3.68-3.679v-24.736L430.588,186.333L430.588,186.333z"/>
	</g>
	<g>
		<path fill="#0F8694" d="M427.976,176.144c-2.596,0-4.598-2.164-4.981-5.385c-0.449-3.763,1.437-8.386,6.636-9.645
			c0.398-0.096,0.815,0.06,1.053,0.396c0.236,0.335,0.244,0.782,0.019,1.125c-1.365,2.082-0.344,3.371,0.838,4.863
			c0.497,0.626,0.966,1.217,1.244,1.877c0.53,1.259,0.56,2.58,0.081,3.72c-0.473,1.128-1.427,2.041-2.686,2.571
			C429.427,175.983,428.686,176.144,427.976,176.144z M428.087,163.87c-2.487,1.493-3.389,4.291-3.107,6.651
			c0.199,1.671,1.104,3.622,2.996,3.622c0.441,0,0.922-0.108,1.427-0.321c0.785-0.331,1.345-0.85,1.618-1.501
			c0.271-0.649,0.244-1.399-0.081-2.169c-0.172-0.409-0.559-0.896-0.968-1.413C429.052,167.578,427.78,165.974,428.087,163.87z"/>
	</g>
	<g>
		<path fill="#0F8694" d="M436.607,186.333h-4.68c-0.417,0-0.79-0.259-0.937-0.649l-3.51-9.359c-0.18-0.479,0.031-1.017,0.489-1.246
			l2.34-1.17c0.479-0.24,1.062-0.06,1.321,0.409l5.85,10.529c0.172,0.31,0.168,0.688-0.012,0.993
			C437.29,186.146,436.962,186.333,436.607,186.333z M432.621,184.333h2.287l-4.56-8.206l-0.679,0.339L432.621,184.333z"/>
	</g>
	<g>
		<path fill="#0F8694" d="M457.664,186.333h-7.02c-0.354,0-0.683-0.188-0.862-0.493c-0.18-0.306-0.184-0.683-0.012-0.993
			l5.85-10.529c0.085-0.153,0.209-0.281,0.359-0.372l5.85-3.509c0.336-0.201,0.757-0.188,1.077,0.031
			c0.322,0.22,0.488,0.606,0.424,0.991l-1.17,7.019c-0.017,0.098-0.047,0.193-0.092,0.283l-3.51,7.019
			C458.389,186.119,458.043,186.333,457.664,186.333z M452.344,184.333h4.702l3.166-6.332l0.789-4.735l-3.763,2.257L452.344,184.333
			z"/>
	</g>
	<g>
		<path fill="#0F8694" d="M461.174,178.814c-0.104,0-0.21-0.033-0.3-0.1l-4.68-3.51c-0.221-0.166-0.266-0.479-0.101-0.7
			c0.167-0.222,0.481-0.264,0.7-0.1l4.68,3.51c0.221,0.166,0.266,0.479,0.101,0.7C461.476,178.745,461.325,178.814,461.174,178.814z
			"/>
	</g>
	<g>
		<path fill="#0F8694" d="M448.305,186.333h-9.358c-0.553,0-1-0.448-1-1v-23.397c0-0.552,0.447-1,1-1h9.358c0.553,0,1,0.448,1,1
			v23.397C449.305,185.885,448.857,186.333,448.305,186.333z M439.946,184.333h7.358v-21.397h-7.358V184.333z"/>
	</g>
	<g>
		<path fill="#0F8694" d="M443.626,167.115h-4.68c-0.276,0-0.5-0.224-0.5-0.5s0.224-0.5,0.5-0.5h4.68c0.276,0,0.5,0.224,0.5,0.5
			S443.902,167.115,443.626,167.115z"/>
	</g>
	<g>
		<path fill="#0F8694" d="M442.456,171.795h-3.51c-0.276,0-0.5-0.224-0.5-0.5s0.224-0.5,0.5-0.5h3.51c0.276,0,0.5,0.224,0.5,0.5
			S442.732,171.795,442.456,171.795z"/>
	</g>
	<g>
		<path fill="#0F8694" d="M443.626,176.474h-4.68c-0.276,0-0.5-0.224-0.5-0.5s0.224-0.5,0.5-0.5h4.68c0.276,0,0.5,0.224,0.5,0.5
			S443.902,176.474,443.626,176.474z"/>
	</g>
	<g>
		<path fill="#0F8694" d="M442.456,181.154h-3.51c-0.276,0-0.5-0.224-0.5-0.5s0.224-0.5,0.5-0.5h3.51c0.276,0,0.5,0.224,0.5,0.5
			S442.732,181.154,442.456,181.154z"/>
	</g>
</g>
<g>
	<g>
		<path fill="#0F8694" d="M109.542,215.902c-2.66,0-4.426-0.34-4.902-0.444h-0.179c-0.477,0.104-2.243,0.444-4.902,0.444
			c-3.613,0-7.271-0.608-10.87-1.808c-8.472-2.824-10.485-16.567-10.821-19.509c-1.298-0.827-4.398-3.532-4.398-10.512
			c0-7.83,2.979-17.284,8.853-28.099c3.812-7.019,7.676-12.359,8.605-13.614c-0.044-3.298,0.046-10.287,1.543-11.81
			c0.385-0.392,0.798-0.474,1.078-0.474c2.043,0,3.844,4.151,4.856,7.066h12.292c1.012-2.915,2.813-7.066,4.856-7.066
			c0.279,0,0.693,0.082,1.078,0.474c1.497,1.523,1.587,8.512,1.543,11.81c0.929,1.255,4.793,6.595,8.605,13.614
			c5.875,10.815,8.853,20.269,8.853,28.099c0,6.98-3.1,9.686-4.399,10.512c-0.336,2.942-2.349,16.685-10.821,19.509
			C116.812,215.294,113.155,215.902,109.542,215.902z M104.348,213.458h0.403c0.08,0,0.16,0.01,0.237,0.029
			c0.017,0.004,1.747,0.416,4.553,0.416c3.398,0,6.842-0.574,10.237-1.706c8.055-2.685,9.503-18.162,9.517-18.318
			c0.032-0.37,0.267-0.692,0.61-0.835c0.142-0.063,3.727-1.75,3.727-8.971c0-17.918-17.087-40.555-17.259-40.782
			c-0.136-0.179-0.208-0.398-0.205-0.623c0.073-4.197-0.235-9.105-0.812-10.454c-0.708,0.67-2.068,3.434-2.991,6.241
			c-0.135,0.41-0.518,0.688-0.95,0.688H97.686c-0.432,0-0.815-0.277-0.95-0.688c-0.909-2.763-2.241-5.484-3.002-6.213
			c-0.57,1.386-0.874,6.257-0.801,10.426c0.004,0.225-0.068,0.445-0.205,0.624c-0.172,0.227-17.259,22.864-17.259,40.782
			c0,7.221,3.584,8.907,3.737,8.975c0.331,0.148,0.567,0.469,0.599,0.831c0.014,0.156,1.462,15.633,9.517,18.318
			c3.395,1.132,6.839,1.706,10.237,1.706c2.806,0,4.536-0.412,4.553-0.416C104.188,213.468,104.269,213.458,104.348,213.458z"/>
	</g>
	<g>
		<path fill="#0F8694" d="M104.055,208.68c-11.958,0-21.688-9.729-21.688-21.688s9.729-21.688,21.688-21.688
			s21.688,9.729,21.688,21.688C125.743,198.951,116.014,208.68,104.055,208.68z M104.055,166.305
			c-11.407,0-20.688,9.281-20.688,20.688s9.28,20.688,20.688,20.688s20.688-9.28,20.688-20.688S115.462,166.305,104.055,166.305z"/>
	</g>
	<g>
		<path fill="#0F8694" d="M78.808,194.466c-0.252,0-0.469-0.19-0.497-0.446c-0.071-0.648-1.693-15.969,1.657-23.279
			c0.115-0.25,0.41-0.36,0.663-0.246c0.251,0.115,0.361,0.412,0.246,0.663c-3.235,7.059-1.589,22.597-1.572,22.753
			c0.03,0.274-0.168,0.521-0.443,0.551C78.844,194.465,78.826,194.466,78.808,194.466z"/>
	</g>
	<g>
		<path fill="#0F8694" d="M130.292,194.466c-0.018,0-0.036-0.001-0.055-0.003c-0.274-0.03-0.473-0.277-0.443-0.551
			c0.017-0.156,1.663-15.695-1.572-22.753c-0.115-0.251-0.005-0.548,0.246-0.663c0.253-0.114,0.548-0.004,0.663,0.246
			c3.35,7.31,1.728,22.63,1.657,23.279C130.76,194.276,130.543,194.466,130.292,194.466z"/>
	</g>
	<g>
		<path fill="#0F8694" d="M95.363,151.664c-1.779,0-3.226-1.447-3.226-3.226s1.447-3.226,3.226-3.226s3.226,1.447,3.226,3.226
			S97.142,151.664,95.363,151.664z M95.363,146.213c-1.227,0-2.226,0.999-2.226,2.226s0.999,2.226,2.226,2.226
			s2.226-0.999,2.226-2.226S96.59,146.213,95.363,146.213z"/>
	</g>
	<g>
		<path fill="#0F8694" d="M104.044,151.463c-0.044,0-0.088-0.006-0.13-0.017l-3.735-1.01c-0.218-0.059-0.37-0.257-0.37-0.483v-1.514
			c0-0.276,0.224-0.5,0.5-0.5h7.471c0.276,0,0.5,0.224,0.5,0.5v1.514c0,0.226-0.151,0.424-0.37,0.483l-3.735,1.01
			C104.132,151.457,104.088,151.463,104.044,151.463z M100.809,149.57l3.235,0.875l3.235-0.875v-0.631h-6.471L100.809,149.57
			L100.809,149.57z"/>
	</g>
	<g>
		<path fill="#0F8694" d="M72.852,160.905c-0.239,0-0.45-0.172-0.492-0.415c-0.047-0.272,0.136-0.531,0.408-0.578l18.473-3.184
			c0.271-0.045,0.53,0.136,0.578,0.408c0.047,0.272-0.136,0.531-0.408,0.578l-18.473,3.184
			C72.908,160.902,72.88,160.905,72.852,160.905z"/>
	</g>
	<g>
		<path fill="#0F8694" d="M88.988,155.299c-0.01,0-0.021,0-0.032-0.001L75.95,154.49c-0.275-0.017-0.485-0.254-0.468-0.53
			s0.243-0.485,0.53-0.468l13.006,0.808c0.276,0.017,0.485,0.254,0.468,0.53C89.47,155.095,89.25,155.299,88.988,155.299z"/>
	</g>
	<g>
		<path fill="#0F8694" d="M88.987,153.279c-0.066,0-0.133-0.013-0.198-0.041l-8.161-3.533c-0.253-0.11-0.37-0.404-0.26-0.658
			c0.11-0.252,0.402-0.369,0.658-0.26l8.161,3.533c0.253,0.11,0.37,0.404,0.26,0.658C89.365,153.166,89.181,153.279,88.987,153.279z
			"/>
	</g>
	<g>
		<path fill="#0F8694" d="M136.045,160.905c-0.028,0-0.057-0.002-0.085-0.007l-18.473-3.184c-0.272-0.047-0.455-0.306-0.408-0.578
			c0.047-0.272,0.308-0.452,0.578-0.408l18.473,3.184c0.272,0.047,0.455,0.306,0.408,0.578
			C136.496,160.733,136.284,160.905,136.045,160.905z"/>
	</g>
	<g>
		<path fill="#0F8694" d="M119.909,155.299c-0.262,0-0.482-0.204-0.499-0.469c-0.017-0.275,0.192-0.513,0.468-0.53l13.006-0.808
			c0.285-0.005,0.513,0.193,0.53,0.468c0.017,0.276-0.192,0.513-0.468,0.53l-13.006,0.808
			C119.93,155.298,119.919,155.299,119.909,155.299z"/>
	</g>
	<g>
		<path fill="#0F8694" d="M119.91,153.279c-0.193,0-0.377-0.113-0.459-0.301c-0.109-0.253,0.007-0.548,0.26-0.658l8.161-3.533
			c0.254-0.109,0.548,0.008,0.658,0.26c0.109,0.253-0.007,0.548-0.26,0.658l-8.161,3.533
			C120.043,153.266,119.976,153.279,119.91,153.279z"/>
	</g>
	<g>
		<path fill="#0F8694" d="M102.848,156.033c-0.024,0-0.048-0.001-0.072-0.005c-0.274-0.035-0.461-0.312-0.427-0.586
			c0.015-0.117,0.204-1.143,2.201-1.143c0.276,0,0.5,0.224,0.5,0.5s-0.224,0.5-0.5,0.5c-1.05,0-1.219,0.321-1.221,0.324
			C103.297,155.872,103.091,156.033,102.848,156.033z"/>
	</g>
	<g>
		<path fill="#0F8694" d="M95.363,149.746c-0.721,0-1.307-0.586-1.307-1.308c0-0.721,0.586-1.307,1.307-1.307
			s1.307,0.586,1.307,1.307C96.67,149.16,96.084,149.746,95.363,149.746z M95.363,148.132c-0.169,0-0.307,0.138-0.307,0.307
			s0.138,0.308,0.307,0.308s0.307-0.138,0.307-0.308S95.533,148.132,95.363,148.132z"/>
	</g>
	<g>
		<path fill="#0F8694" d="M113.736,151.664c-1.779,0-3.226-1.447-3.226-3.226s1.447-3.226,3.226-3.226s3.226,1.447,3.226,3.226
			S115.515,151.664,113.736,151.664z M113.736,146.213c-1.227,0-2.226,0.999-2.226,2.226s0.999,2.226,2.226,2.226
			s2.226-0.999,2.226-2.226S114.963,146.213,113.736,146.213z"/>
	</g>
	<g>
		<path fill="#0F8694" d="M113.736,149.746c-0.721,0-1.307-0.586-1.307-1.308c0-0.721,0.586-1.307,1.307-1.307
			s1.308,0.586,1.308,1.307C115.043,149.16,114.457,149.746,113.736,149.746z M113.736,148.132c-0.169,0-0.307,0.138-0.307,0.307
			s0.138,0.308,0.307,0.308s0.308-0.138,0.308-0.308S113.905,148.132,113.736,148.132z"/>
	</g>
	<g>
		<path fill="#0F8694" d="M93.648,173.489c-0.184,0-0.36-0.101-0.448-0.276c-0.124-0.247-0.023-0.547,0.224-0.671l2.423-1.211
			c0.141-0.07,0.307-0.07,0.447,0l2.422,1.211c0.247,0.124,0.347,0.424,0.224,0.671c-0.125,0.248-0.424,0.347-0.671,0.224
			l-2.199-1.1l-2.199,1.1C93.799,173.472,93.723,173.489,93.648,173.489z"/>
	</g>
	<g>
		<path fill="#0F8694" d="M106.467,173.489c-0.075,0-0.151-0.017-0.223-0.053l-2.199-1.1l-2.199,1.1
			c-0.248,0.123-0.547,0.024-0.671-0.224c-0.124-0.247-0.023-0.547,0.224-0.671l2.423-1.211c0.141-0.07,0.307-0.07,0.447,0
			l2.423,1.211c0.247,0.124,0.347,0.424,0.224,0.671C106.827,173.388,106.65,173.489,106.467,173.489z"/>
	</g>
	<g>
		<path fill="#0F8694" d="M114.441,173.489c-0.075,0-0.151-0.017-0.223-0.053l-2.199-1.1l-2.199,1.1
			c-0.247,0.123-0.547,0.024-0.671-0.224c-0.124-0.247-0.023-0.547,0.224-0.671l2.422-1.211c0.141-0.07,0.307-0.07,0.447,0
			l2.423,1.211c0.247,0.124,0.347,0.424,0.224,0.671C114.801,173.388,114.625,173.489,114.441,173.489z"/>
	</g>
	<g>
		<path fill="#0F8694" d="M93.647,179.576c-0.075,0-0.151-0.017-0.223-0.053l-2.199-1.1l-2.199,1.1
			c-0.248,0.123-0.547,0.023-0.671-0.224s-0.023-0.547,0.224-0.671l2.423-1.211c0.141-0.07,0.307-0.07,0.447,0l2.423,1.211
			c0.247,0.124,0.347,0.424,0.224,0.671C94.007,179.475,93.831,179.576,93.647,179.576z"/>
	</g>
	<g>
		<path fill="#0F8694" d="M96.777,179.576c-0.184,0-0.36-0.101-0.448-0.276c-0.124-0.247-0.023-0.547,0.224-0.671l2.423-1.211
			c0.141-0.07,0.307-0.07,0.447,0l2.422,1.211c0.247,0.124,0.347,0.424,0.224,0.671c-0.125,0.247-0.424,0.347-0.671,0.224
			l-2.199-1.1l-2.199,1.1C96.928,179.559,96.852,179.576,96.777,179.576z"/>
	</g>
	<g>
		<path fill="#0F8694" d="M109.596,179.576c-0.075,0-0.151-0.017-0.223-0.053l-2.199-1.1l-2.199,1.1
			c-0.248,0.123-0.547,0.023-0.671-0.224s-0.023-0.547,0.224-0.671l2.423-1.211c0.141-0.07,0.307-0.07,0.447,0l2.423,1.211
			c0.247,0.124,0.347,0.424,0.224,0.671C109.956,179.475,109.779,179.576,109.596,179.576z"/>
	</g>
	<g>
		<path fill="#0F8694" d="M117.571,179.576c-0.075,0-0.151-0.017-0.223-0.053l-2.199-1.1l-2.199,1.1
			c-0.248,0.123-0.547,0.023-0.671-0.224s-0.023-0.547,0.224-0.671l2.423-1.211c0.141-0.07,0.307-0.07,0.447,0l2.423,1.211
			c0.247,0.124,0.347,0.424,0.224,0.671C117.931,179.475,117.755,179.576,117.571,179.576z"/>
	</g>
	<g>
		<path fill="#0F8694" d="M97.636,216.759H81.231c-0.552,0-1-0.448-1-1c0-1.583,2.559-2.924,7.605-3.983
			c0.544-0.113,1.071,0.233,1.184,0.773c0.114,0.541-0.232,1.071-0.773,1.184c-1.332,0.28-2.656,0.651-3.728,1.026h13.115
			c0.552,0,1,0.448,1,1S98.188,216.759,97.636,216.759z"/>
	</g>
	<g>
		<path fill="#0F8694" d="M126.153,216.759H109.75c-0.552,0-1-0.448-1-1s0.448-1,1-1h13.864c-0.798-0.372-1.813-0.756-2.827-1.042
			c-0.531-0.149-0.841-0.702-0.692-1.233c0.148-0.531,0.699-0.844,1.232-0.692c2.176,0.61,5.827,1.938,5.827,3.967
			C127.153,216.311,126.706,216.759,126.153,216.759z"/>
	</g>
</g>
<g>
	<g>
		<path fill="#0F8694" d="M501.738,207.432h-14.907c-2.092,0-3.794-1.703-3.794-3.795v-15.839c0-0.552,0.447-1,1-1h20.496
			c0.553,0,1,0.448,1,1v15.839C505.533,205.729,503.831,207.432,501.738,207.432z M485.037,188.798v14.839
			c0,0.99,0.805,1.795,1.794,1.795h14.907c0.989,0,1.795-0.805,1.795-1.795v-14.839H485.037z"/>
	</g>
	<g>
		<path fill="#0F8694" d="M504.553,186.004c-0.005,0-0.013,0-0.02,0h-20.496c-0.553,0-1-0.448-1-1
			c0-6.203,5.046-11.249,11.248-11.249c6.132,0,11.134,4.933,11.246,11.04c0.015,0.067,0.021,0.137,0.021,0.209
			C505.553,185.556,505.105,186.004,504.553,186.004z M485.091,184.004h18.389c-0.5-4.631-4.433-8.249-9.194-8.249
			S485.591,179.372,485.091,184.004z"/>
	</g>
	<g>
		<path fill="#0F8694" d="M498.502,176.163c-0.078,0-0.158-0.018-0.232-0.057c-0.244-0.128-0.339-0.43-0.211-0.675l2.05-3.914
			c0.129-0.244,0.433-0.338,0.676-0.211c0.244,0.128,0.339,0.43,0.211,0.675l-2.05,3.914
			C498.855,176.065,498.682,176.163,498.502,176.163z"/>
	</g>
	<g>
		<circle fill="#0F8694" cx="498.229" cy="180.198" r="0.932"/>
	</g>
	<g>
		<path fill="#0F8694" d="M489.626,216.749c-2.093,0-3.795-1.702-3.795-3.794v-6.522c0-0.552,0.447-1,1-1h5.591c0.553,0,1,0.448,1,1
			v6.522C493.422,215.047,491.719,216.749,489.626,216.749z M487.831,207.432v5.522c0,0.989,0.806,1.794,1.795,1.794
			c0.99,0,1.796-0.805,1.796-1.794v-5.522H487.831z"/>
	</g>
	<g>
		<path fill="#0F8694" d="M481.242,201.842c-2.093,0-3.795-1.703-3.795-3.795v-7.453c0-2.093,1.702-3.795,3.795-3.795
			s3.795,1.703,3.795,3.795v7.453C485.037,200.139,483.335,201.842,481.242,201.842z M481.242,188.798
			c-0.989,0-1.795,0.806-1.795,1.795v7.453c0,0.99,0.806,1.795,1.795,1.795s1.795-0.806,1.795-1.795v-7.453
			C483.037,189.604,482.231,188.798,481.242,188.798z"/>
	</g>
	<g>
		<path fill="#0F8694" d="M490.068,176.163c-0.18,0-0.354-0.098-0.443-0.268l-2.05-3.914c-0.128-0.245-0.033-0.547,0.211-0.675
			c0.245-0.128,0.547-0.033,0.676,0.211l2.05,3.914c0.128,0.245,0.033,0.547-0.211,0.675
			C490.227,176.145,490.146,176.163,490.068,176.163z"/>
	</g>
	<g>
		<circle fill="#0F8694" cx="490.342" cy="180.198" r="0.932"/>
	</g>
	<g>
		<path fill="#0F8694" d="M498.944,216.749c-2.093,0-3.796-1.702-3.796-3.794v-6.522c0-0.552,0.447-1,1-1h5.59c0.553,0,1,0.448,1,1
			v6.522C502.738,215.047,501.036,216.749,498.944,216.749z M497.148,207.432v5.522c0,0.989,0.806,1.794,1.796,1.794
			c0.989,0,1.794-0.805,1.794-1.794v-5.522H497.148z"/>
	</g>
	<g>
		<path fill="#0F8694" d="M507.328,201.842c-2.093,0-3.795-1.703-3.795-3.795v-7.453c0-2.093,1.702-3.795,3.795-3.795
			s3.795,1.703,3.795,3.795v7.453C511.123,200.139,509.421,201.842,507.328,201.842z M507.328,188.798
			c-0.989,0-1.795,0.806-1.795,1.795v7.453c0,0.99,0.806,1.795,1.795,1.795s1.795-0.806,1.795-1.795v-7.453
			C509.123,189.604,508.317,188.798,507.328,188.798z"/>
	</g>
</g>
<g>
	<path fill="#0F8694" d="M384.886,216.559h-23.539c-0.184,0-0.364-0.051-0.521-0.146c-1.912-1.167-2.313-2.415-2.313-3.256
		c0-3.692,7.097-7.183,14.604-7.183s14.604,3.491,14.604,7.183c0,0.842-0.401,2.09-2.314,3.257
		C385.25,216.509,385.069,216.559,384.886,216.559z M361.639,214.559h22.955c0.72-0.482,1.127-0.986,1.127-1.403
		c0-1.774-5.323-5.183-12.604-5.183s-12.604,3.409-12.604,5.183C360.513,213.573,360.92,214.077,361.639,214.559z"/>
</g>
<g>
	<path fill="#0F8694" d="M390.976,181.714h-234c-6.065,0-11-4.935-11-11v-154c0-6.065,4.935-11,11-11h234c6.065,0,11,4.935,11,11
		v154C401.976,176.78,397.041,181.714,390.976,181.714z M156.976,7.714c-4.962,0-9,4.038-9,9v154c0,4.962,4.038,9,9,9h234
		c4.963,0,9-4.038,9-9v-154c0-4.962-4.037-9-9-9C390.976,7.714,156.976,7.714,156.976,7.714z"/>
</g>
<g>
	<path fill="#0F8694" d="M308.938,216.809h-69.925c-1.023,0-1.946-0.645-2.298-1.605c-0.352-0.96-0.063-2.049,0.718-2.71
		l4.516-3.821c1.69-1.43,2.769-3.428,3.039-5.626l2.75-22.413l1.985,0.243l-2.75,22.413c-0.332,2.699-1.657,5.153-3.732,6.909
		l-4.516,3.821c-0.143,0.121-0.196,0.32-0.132,0.495c0.064,0.176,0.233,0.293,0.42,0.293h69.925c0.187,0,0.355-0.118,0.42-0.293
		c0.063-0.175,0.012-0.375-0.132-0.495l-4.515-3.821c-2.077-1.756-3.402-4.21-3.732-6.909l-2.75-22.413l1.984-0.243l2.75,22.413
		c0.27,2.197,1.349,4.195,3.039,5.625l4.516,3.822c0.781,0.661,1.069,1.75,0.717,2.71
		C310.884,216.164,309.961,216.809,308.938,216.809z"/>
</g>
<g>
	<g>
		<path fill="#0F8694" d="M272.356,170.182c-0.998,0-1.668-0.967-2.112-1.607c-1.12-1.613-1.756-4.292-0.729-6.082
			c0.569-0.991,1.604-1.617,2.702-1.634h0.001c0.526,0,0.97,0.175,1.326,0.316c0.181,0.071,0.405,0.16,0.498,0.16
			c0.076-0.001,0.306-0.093,0.475-0.159c0.455-0.18,1.048-0.407,1.683-0.346c0.439,0.018,1.61,0.185,2.378,1.304l0.293,0.428
			l-0.439,0.277c-0.171,0.105-0.965,0.645-0.955,1.669c0.013,1.265,1.048,1.719,1.167,1.767l0.434,0.175l-0.144,0.445
			c-0.083,0.27-0.33,0.97-0.823,1.693c-0.472,0.692-1.06,1.553-2.087,1.573c0,0-0.001,0-0.002,0c-0.488,0-0.79-0.13-1.057-0.245
			c-0.245-0.106-0.439-0.189-0.765-0.189c-0.351,0.001-0.567,0.093-0.817,0.2c-0.259,0.11-0.553,0.236-0.968,0.253L272.356,170.182z
			 M272.257,161.858c-0.771,0.012-1.479,0.446-1.874,1.133c-0.873,1.521-0.126,3.848,0.683,5.014
			c0.413,0.596,0.853,1.177,1.291,1.177v0.5l0.02-0.5c0.231-0.009,0.4-0.082,0.615-0.174c0.291-0.124,0.653-0.279,1.206-0.28
			c0.536,0,0.885,0.15,1.165,0.271c0.221,0.095,0.381,0.164,0.618,0.164c0.501-0.009,0.856-0.477,1.307-1.137
			c0.264-0.387,0.445-0.771,0.558-1.049c-0.531-0.34-1.351-1.087-1.366-2.457c-0.011-1.062,0.537-1.778,0.965-2.175
			c-0.481-0.431-1.055-0.507-1.314-0.518c-0.07-0.006-0.111-0.008-0.152-0.008c-0.367,0-0.752,0.152-1.092,0.287
			c-0.645,0.255-1.132,0.227-1.708,0C272.871,161.984,272.554,161.858,272.257,161.858z"/>
	</g>
	<g>
		<path fill="#0F8694" d="M274.073,161.709L274.073,161.709c-0.05,0-0.1-0.002-0.149-0.006l-0.403-0.031l-0.054-0.401
			c-0.11-0.822,0.29-1.623,0.702-2.098c0.489-0.572,1.286-0.978,1.98-1.006l0.466-0.019l0.051,0.463
			c0.081,0.73-0.169,1.507-0.685,2.132C275.488,161.339,274.757,161.709,274.073,161.709z M275.621,159.318
			c-0.263,0.12-0.518,0.302-0.694,0.508c-0.179,0.206-0.346,0.496-0.427,0.798c0.26-0.1,0.515-0.282,0.71-0.518
			C275.406,159.868,275.547,159.595,275.621,159.318z"/>
	</g>
</g>
<g>
	<g>
		<rect x="203.976" y="211.402" fill="#49DBED" width="140" height="4"/>
		<path fill="#0F8694" d="M343.976,216.402h-140c-0.552,0-1-0.448-1-1v-4c0-0.552,0.448-1,1-1h140c0.553,0,1,0.448,1,1v4
			C344.976,215.954,344.528,216.402,343.976,216.402z M204.976,214.402h138v-2h-138L204.976,214.402L204.976,214.402z"/>
	</g>
	<g>
		<rect x="205.976" y="208.402" fill="#49DBED" width="6" height="3"/>
		<path fill="#0F8694" d="M211.976,212.402h-6c-0.552,0-1-0.448-1-1v-3c0-0.552,0.448-1,1-1h6c0.552,0,1,0.448,1,1v3
			C212.976,211.954,212.528,212.402,211.976,212.402z M206.976,210.402h4v-1h-4V210.402z"/>
	</g>
	<g>
		<rect x="211.976" y="208.402" fill="#49DBED" width="6" height="3"/>
		<path fill="#0F8694" d="M217.976,212.402h-6c-0.552,0-1-0.448-1-1v-3c0-0.552,0.448-1,1-1h6c0.552,0,1,0.448,1,1v3
			C218.976,211.954,218.528,212.402,217.976,212.402z M212.976,210.402h4v-1h-4V210.402z"/>
	</g>
	<g>
		<rect x="217.976" y="208.402" fill="#49DBED" width="6" height="3"/>
		<path fill="#0F8694" d="M223.976,212.402h-6c-0.552,0-1-0.448-1-1v-3c0-0.552,0.448-1,1-1h6c0.552,0,1,0.448,1,1v3
			C224.976,211.954,224.528,212.402,223.976,212.402z M218.976,210.402h4v-1h-4V210.402z"/>
	</g>
	<g>
		<rect x="223.976" y="208.402" fill="#49DBED" width="54" height="3"/>
		<path fill="#0F8694" d="M277.976,212.402h-54c-0.552,0-1-0.448-1-1v-3c0-0.552,0.448-1,1-1h54c0.552,0,1,0.448,1,1v3
			C278.976,211.954,278.528,212.402,277.976,212.402z M224.976,210.402h52v-1h-52L224.976,210.402L224.976,210.402z"/>
	</g>
	<g>
		<rect x="277.976" y="208.402" fill="#49DBED" width="6" height="3"/>
		<path fill="#0F8694" d="M283.976,212.402h-6c-0.552,0-1-0.448-1-1v-3c0-0.552,0.448-1,1-1h6c0.553,0,1,0.448,1,1v3
			C284.976,211.954,284.528,212.402,283.976,212.402z M278.976,210.402h4v-1h-4V210.402z"/>
	</g>
	<g>
		<rect x="283.976" y="208.402" fill="#49DBED" width="6" height="3"/>
		<path fill="#0F8694" d="M289.976,212.402h-6c-0.553,0-1-0.448-1-1v-3c0-0.552,0.447-1,1-1h6c0.553,0,1,0.448,1,1v3
			C290.976,211.954,290.528,212.402,289.976,212.402z M284.976,210.402h4v-1h-4V210.402z"/>
	</g>
	<g>
		<rect x="289.976" y="208.402" fill="#49DBED" width="6" height="3"/>
		<path fill="#0F8694" d="M295.976,212.402h-6c-0.553,0-1-0.448-1-1v-3c0-0.552,0.447-1,1-1h6c0.553,0,1,0.448,1,1v3
			C296.976,211.954,296.528,212.402,295.976,212.402z M290.976,210.402h4v-1h-4V210.402z"/>
	</g>
	<g>
		<rect x="301.976" y="208.402" fill="#49DBED" width="6" height="3"/>
		<path fill="#0F8694" d="M307.976,212.402h-6c-0.553,0-1-0.448-1-1v-3c0-0.552,0.447-1,1-1h6c0.553,0,1,0.448,1,1v3
			C308.976,211.954,308.528,212.402,307.976,212.402z M302.976,210.402h4v-1h-4V210.402z"/>
	</g>
	<g>
		<rect x="307.976" y="208.402" fill="#49DBED" width="6" height="3"/>
		<path fill="#0F8694" d="M313.976,212.402h-6c-0.553,0-1-0.448-1-1v-3c0-0.552,0.447-1,1-1h6c0.553,0,1,0.448,1,1v3
			C314.976,211.954,314.528,212.402,313.976,212.402z M308.976,210.402h4v-1h-4V210.402z"/>
	</g>
	<g>
		<rect x="313.976" y="208.402" fill="#49DBED" width="6" height="3"/>
		<path fill="#0F8694" d="M319.976,212.402h-6c-0.553,0-1-0.448-1-1v-3c0-0.552,0.447-1,1-1h6c0.553,0,1,0.448,1,1v3
			C320.976,211.954,320.528,212.402,319.976,212.402z M314.976,210.402h4v-1h-4V210.402z"/>
	</g>
	<g>
		<rect x="323.976" y="208.402" fill="#49DBED" width="6" height="3"/>
		<path fill="#0F8694" d="M329.976,212.402h-6c-0.553,0-1-0.448-1-1v-3c0-0.552,0.447-1,1-1h6c0.553,0,1,0.448,1,1v3
			C330.976,211.954,330.528,212.402,329.976,212.402z M324.976,210.402h4v-1h-4V210.402z"/>
	</g>
	<g>
		<rect x="329.976" y="208.402" fill="#49DBED" width="6" height="3"/>
		<path fill="#0F8694" d="M335.976,212.402h-6c-0.553,0-1-0.448-1-1v-3c0-0.552,0.447-1,1-1h6c0.553,0,1,0.448,1,1v3
			C336.976,211.954,336.528,212.402,335.976,212.402z M330.976,210.402h4v-1h-4V210.402z"/>
	</g>
	<g>
		<rect x="335.976" y="208.402" fill="#49DBED" width="6" height="3"/>
		<path fill="#0F8694" d="M341.976,212.402h-6c-0.553,0-1-0.448-1-1v-3c0-0.552,0.447-1,1-1h6c0.553,0,1,0.448,1,1v3
			C342.976,211.954,342.528,212.402,341.976,212.402z M336.976,210.402h4v-1h-4V210.402z"/>
	</g>
</g>
<g>
	<path fill="#0F8694" d="M50.428,157.584c2.025,0,3.668,1.642,3.668,3.667v43.724c0,2.025-1.643,3.668-3.668,3.668H33.523
		c-2.025,0-3.668-1.642-3.668-3.668v-43.724c0-2.026,1.643-3.667,3.668-3.667H50.428 M50.428,155.584H33.523
		c-3.125,0-5.668,2.542-5.668,5.667v43.724c0,3.125,2.543,5.668,5.668,5.668h16.904c3.125,0,5.668-2.542,5.668-5.668v-43.724
		C56.096,158.127,53.553,155.584,50.428,155.584L50.428,155.584z"/>
</g>
<g opacity="0.6">
	<path fill="#0F8694" d="M52.574,201.581H31.502v-37.124h21.072V201.581z M32.502,200.581h19.072v-35.124H32.502V200.581z"/>
</g>
<g>
	<path fill="#0F8694" d="M51.662,165.461v35.076h-19.26v-35.076H51.662 M52.318,164.461H31.746c-0.189,0-0.344,0.155-0.344,0.344
		v36.389c0,0.189,0.155,0.344,0.344,0.344h20.572c0.189,0,0.344-0.155,0.344-0.344v-36.389
		C52.662,164.615,52.508,164.461,52.318,164.461L52.318,164.461z"/>
</g>
<g>
	<path fill="#0F8694" d="M43.953,161.796c0,0.142-0.225,0.258-0.5,0.258h-2.897c-0.275,0-0.5-0.116-0.5-0.258s0.225-0.258,0.5-0.258
		h2.897C43.728,161.538,43.953,161.654,43.953,161.796z"/>
</g>
<g>
	<circle fill="#0F8694" cx="38.795" cy="161.853" r="0.315"/>
</g>
<g>
	<circle fill="#0F8694" cx="42.033" cy="159.933" r="0.458"/>
</g>
<g>
	<path fill="#0F8694" d="M42.033,203.74c0.602,0,1.092,0.49,1.092,1.091c0,0.602-0.49,1.092-1.092,1.092s-1.092-0.49-1.092-1.092
		C40.941,204.23,41.431,203.74,42.033,203.74 M42.033,202.74c-1.156,0-2.092,0.936-2.092,2.091s0.936,2.092,2.092,2.092
		c1.154,0,2.092-0.936,2.092-2.092C44.125,203.677,43.187,202.74,42.033,202.74L42.033,202.74z"/>
</g>
<g>
	<polygon fill="#49DBED" points="60.976,215.643 22.976,215.643 26.976,205.643 31.976,205.643 34.976,208.643 48.976,208.643 
		51.976,205.643 56.976,205.643 	"/>
	<path fill="#0F8694" d="M60.976,216.643h-38c-0.332,0-0.642-0.165-0.828-0.439s-0.224-0.624-0.101-0.932l4-10
		c0.152-0.379,0.52-0.628,0.929-0.628h5c0.265,0,0.52,0.105,0.707,0.293l2.707,2.707h13.172l2.707-2.707
		c0.188-0.188,0.442-0.293,0.707-0.293h5c0.409,0,0.776,0.249,0.929,0.628l4,10c0.123,0.308,0.085,0.657-0.101,0.932
		S61.308,216.643,60.976,216.643z M24.453,214.643h35.046l-3.2-8H52.39l-2.707,2.707c-0.188,0.188-0.442,0.293-0.707,0.293h-14
		c-0.265,0-0.52-0.105-0.707-0.293l-2.707-2.707h-3.909L24.453,214.643z"/>
</g>
<g>
	<g>
		<path fill="#8FEEF7" d="M390.49,145.027c0,1.65-1.35,3-3,3H160.461c-1.65,0-3-1.35-3-3v-126c0-1.65,1.35-3,3-3H387.49
			c1.65,0,3,1.35,3,3V145.027z"/>
	</g>
	<g>
		<path fill="#0F8694" d="M387.49,148.527H160.461c-1.93,0-3.5-1.57-3.5-3.5v-126c0-1.93,1.57-3.5,3.5-3.5H387.49
			c1.93,0,3.5,1.57,3.5,3.5v126C390.99,146.956,389.42,148.527,387.49,148.527z M160.461,16.527c-1.378,0-2.5,1.122-2.5,2.5v126
			c0,1.378,1.122,2.5,2.5,2.5H387.49c1.379,0,2.5-1.122,2.5-2.5v-126c0-1.378-1.121-2.5-2.5-2.5
			C387.49,16.527,160.461,16.527,160.461,16.527z"/>
	</g>
</g>
<g>
	<rect x="157.461" y="23.527" fill="#0F8694" width="233.029" height="1"/>
</g>
<g>
	<path fill="#0F8694" d="M163.735,21.527c-0.827,0-1.5-0.673-1.5-1.5s0.673-1.5,1.5-1.5s1.5,0.673,1.5,1.5
		S164.562,21.527,163.735,21.527z M163.735,19.527c-0.276,0-0.5,0.224-0.5,0.5s0.224,0.5,0.5,0.5s0.5-0.224,0.5-0.5
		S164.011,19.527,163.735,19.527z"/>
</g>
<g>
	<path fill="#0F8694" d="M169.235,21.527c-0.827,0-1.5-0.673-1.5-1.5s0.673-1.5,1.5-1.5s1.5,0.673,1.5,1.5
		S170.062,21.527,169.235,21.527z M169.235,19.527c-0.276,0-0.5,0.224-0.5,0.5s0.224,0.5,0.5,0.5s0.5-0.224,0.5-0.5
		S169.511,19.527,169.235,19.527z"/>
</g>
<g>
	<path fill="#0F8694" d="M174.735,21.527c-0.827,0-1.5-0.673-1.5-1.5s0.673-1.5,1.5-1.5s1.5,0.673,1.5,1.5
		S175.562,21.527,174.735,21.527z M174.735,19.527c-0.276,0-0.5,0.224-0.5,0.5s0.224,0.5,0.5,0.5s0.5-0.224,0.5-0.5
		S175.011,19.527,174.735,19.527z"/>
</g>
<g>
	<path fill="#3694A1" d="M388.49,148.527H159.461c-1.378,0-2.5-1.122-2.5-2.5v-128c0-1.378,1.122-2.5,2.5-2.5H388.49
		c1.379,0,2.5,1.122,2.5,2.5v128C390.99,147.405,389.869,148.527,388.49,148.527z M159.461,16.527c-0.827,0-1.5,0.673-1.5,1.5v128
		c0,0.827,0.673,1.5,1.5,1.5H388.49c0.827,0,1.5-0.673,1.5-1.5v-128c0-0.827-0.673-1.5-1.5-1.5
		C388.49,16.527,159.461,16.527,159.461,16.527z"/>
</g>
<g>
	<path fill="#27AEBD" d="M188.954,134.466h-20c-0.276,0-0.5-0.224-0.5-0.5v-100c0-0.276,0.224-0.5,0.5-0.5h20
		c0.276,0,0.5,0.224,0.5,0.5v100C189.454,134.242,189.23,134.466,188.954,134.466z M169.454,133.466h19v-99h-19V133.466z"/>
</g>
<g>
	<rect x="168.954" y="35.466" fill="#27AEBD" width="20" height="1"/>
</g>
<g>
	<g>
		<g>
			<path fill="#27AEBD" d="M377.985,63.341h-32c-0.276,0-0.5-0.224-0.5-0.5v-27c0-0.276,0.224-0.5,0.5-0.5h11.312
				c0.276,0,0.5,0.224,0.5,0.5v2.5h20.188c0.276,0,0.5,0.224,0.5,0.5v24C378.485,63.117,378.262,63.341,377.985,63.341z
				 M346.485,62.341h31v-23h-20.188c-0.276,0-0.5-0.224-0.5-0.5v-2.5h-10.312V62.341z"/>
		</g>
		<g>
			<path fill="#27AEBD" d="M364.61,39.341h-7.312c-0.276,0-0.5-0.224-0.5-0.5v-3c0-0.276,0.224-0.5,0.5-0.5h7.312
				c0.276,0,0.5,0.224,0.5,0.5v3C365.11,39.117,364.887,39.341,364.61,39.341z M357.798,38.341h6.312v-2h-6.312V38.341z"/>
		</g>
	</g>
	<g>
		<g>
			<path fill="#27AEBD" d="M374.485,59.466h-25c-0.276,0-0.5-0.224-0.5-0.5v-15c0-0.276,0.224-0.5,0.5-0.5h25
				c0.276,0,0.5,0.224,0.5,0.5v15C374.985,59.242,374.762,59.466,374.485,59.466z M349.985,58.466h24v-14h-24V58.466z"/>
		</g>
		<g>
			<rect x="353.985" y="43.966" fill="#27AEBD" width="1" height="15"/>
		</g>
		<g>
			<rect x="358.985" y="43.966" fill="#27AEBD" width="1" height="15"/>
		</g>
		<g>
			<rect x="363.985" y="43.966" fill="#27AEBD" width="1" height="15"/>
		</g>
		<g>
			<rect x="368.985" y="43.966" fill="#27AEBD" width="1" height="15"/>
		</g>
		<g>
			<rect x="349.485" y="48.466" fill="#27AEBD" width="25" height="1"/>
		</g>
		<g>
			<rect x="349.485" y="53.466" fill="#27AEBD" width="25" height="1"/>
		</g>
	</g>
</g>
<g>
	<g>
		<path fill="#27AEBD" d="M367.33,115.402h-32c-0.276,0-0.5-0.224-0.5-0.5v-27c0-0.276,0.224-0.5,0.5-0.5h11.312
			c0.276,0,0.5,0.224,0.5,0.5v2.5h20.188c0.276,0,0.5,0.224,0.5,0.5v24C367.83,115.179,367.606,115.402,367.33,115.402z
			 M335.83,114.402h31v-23h-20.188c-0.276,0-0.5-0.224-0.5-0.5v-2.5H335.83V114.402z"/>
	</g>
	<g>
		<g>
			<path fill="#27AEBD" d="M362.33,96.402h-22c-0.276,0-0.5-0.224-0.5-0.5s0.224-0.5,0.5-0.5h22c0.276,0,0.5,0.224,0.5,0.5
				S362.606,96.402,362.33,96.402z"/>
		</g>
		<g>
			<path fill="#27AEBD" d="M362.33,103.402h-22c-0.276,0-0.5-0.224-0.5-0.5s0.224-0.5,0.5-0.5h22c0.276,0,0.5,0.224,0.5,0.5
				S362.606,103.402,362.33,103.402z"/>
		</g>
		<g>
			<path fill="#27AEBD" d="M362.33,110.402h-22c-0.276,0-0.5-0.224-0.5-0.5s0.224-0.5,0.5-0.5h22c0.276,0,0.5,0.224,0.5,0.5
				S362.606,110.402,362.33,110.402z"/>
		</g>
		<g>
			<path fill="#27AEBD" d="M358.435,97.402c-0.827,0-1.5-0.673-1.5-1.5s0.673-1.5,1.5-1.5s1.5,0.673,1.5,1.5
				S359.262,97.402,358.435,97.402z M358.435,95.402c-0.275,0-0.5,0.224-0.5,0.5s0.225,0.5,0.5,0.5s0.5-0.224,0.5-0.5
				S358.71,95.402,358.435,95.402z"/>
		</g>
		<g>
			<path fill="#27AEBD" d="M349.143,104.402c-0.827,0-1.5-0.673-1.5-1.5s0.673-1.5,1.5-1.5s1.5,0.673,1.5,1.5
				S349.97,104.402,349.143,104.402z M349.143,102.402c-0.275,0-0.5,0.224-0.5,0.5s0.225,0.5,0.5,0.5s0.5-0.224,0.5-0.5
				S349.418,102.402,349.143,102.402z"/>
		</g>
		<g>
			<path fill="#27AEBD" d="M354.143,111.402c-0.827,0-1.5-0.673-1.5-1.5s0.673-1.5,1.5-1.5s1.5,0.673,1.5,1.5
				S354.97,111.402,354.143,111.402z M354.143,109.402c-0.275,0-0.5,0.224-0.5,0.5s0.225,0.5,0.5,0.5s0.5-0.224,0.5-0.5
				S354.418,109.402,354.143,109.402z"/>
		</g>
	</g>
</g>
<g>
	<path fill="#27AEBD" d="M177.954,45.466h-7c-0.276,0-0.5-0.224-0.5-0.5v-7c0-0.276,0.224-0.5,0.5-0.5h7c0.276,0,0.5,0.224,0.5,0.5
		v7C178.454,45.242,178.23,45.466,177.954,45.466z M171.454,44.466h6v-6h-6V44.466z"/>
</g>
<g>
	<path fill="#27AEBD" d="M186.954,45.466h-7c-0.276,0-0.5-0.224-0.5-0.5v-7c0-0.276,0.224-0.5,0.5-0.5h7c0.276,0,0.5,0.224,0.5,0.5
		v7C187.454,45.242,187.23,45.466,186.954,45.466z M180.454,44.466h6v-6h-6V44.466z"/>
</g>
<g>
	<path fill="#27AEBD" d="M177.954,54.466h-7c-0.276,0-0.5-0.224-0.5-0.5v-7c0-0.276,0.224-0.5,0.5-0.5h7c0.276,0,0.5,0.224,0.5,0.5
		v7C178.454,54.242,178.23,54.466,177.954,54.466z M171.454,53.466h6v-6h-6V53.466z"/>
</g>
<g>
	<path fill="#27AEBD" d="M186.954,54.466h-7c-0.276,0-0.5-0.224-0.5-0.5v-7c0-0.276,0.224-0.5,0.5-0.5h7c0.276,0,0.5,0.224,0.5,0.5
		v7C187.454,54.242,187.23,54.466,186.954,54.466z M180.454,53.466h6v-6h-6V53.466z"/>
</g>
<g>
	<path fill="#27AEBD" d="M177.954,63.466h-7c-0.276,0-0.5-0.224-0.5-0.5v-7c0-0.276,0.224-0.5,0.5-0.5h7c0.276,0,0.5,0.224,0.5,0.5
		v7C178.454,63.242,178.23,63.466,177.954,63.466z M171.454,62.466h6v-6h-6V62.466z"/>
</g>
<g>
	<path fill="#27AEBD" d="M186.954,63.466h-7c-0.276,0-0.5-0.224-0.5-0.5v-7c0-0.276,0.224-0.5,0.5-0.5h7c0.276,0,0.5,0.224,0.5,0.5
		v7C187.454,63.242,187.23,63.466,186.954,63.466z M180.454,62.466h6v-6h-6V62.466z"/>
</g>
<g>
	<path fill="#27AEBD" d="M177.954,72.466h-7c-0.276,0-0.5-0.224-0.5-0.5v-7c0-0.276,0.224-0.5,0.5-0.5h7c0.276,0,0.5,0.224,0.5,0.5
		v7C178.454,72.242,178.23,72.466,177.954,72.466z M171.454,71.466h6v-6h-6V71.466z"/>
</g>
<g>
	<path fill="#27AEBD" d="M186.954,72.466h-7c-0.276,0-0.5-0.224-0.5-0.5v-7c0-0.276,0.224-0.5,0.5-0.5h7c0.276,0,0.5,0.224,0.5,0.5
		v7C187.454,72.242,187.23,72.466,186.954,72.466z M180.454,71.466h6v-6h-6V71.466z"/>
</g>
<g>
	<path fill="#27AEBD" d="M177.954,86.466h-7c-0.276,0-0.5-0.224-0.5-0.5v-7c0-0.276,0.224-0.5,0.5-0.5h7c0.276,0,0.5,0.224,0.5,0.5
		v7C178.454,86.242,178.23,86.466,177.954,86.466z M171.454,85.466h6v-6h-6V85.466z"/>
</g>
<g>
	<path fill="#27AEBD" d="M186.954,86.466h-7c-0.276,0-0.5-0.224-0.5-0.5v-7c0-0.276,0.224-0.5,0.5-0.5h7c0.276,0,0.5,0.224,0.5,0.5
		v7C187.454,86.242,187.23,86.466,186.954,86.466z M180.454,85.466h6v-6h-6V85.466z"/>
</g>
<g>
	<path fill="#27AEBD" d="M177.954,95.466h-7c-0.276,0-0.5-0.224-0.5-0.5v-7c0-0.276,0.224-0.5,0.5-0.5h7c0.276,0,0.5,0.224,0.5,0.5
		v7C178.454,95.242,178.23,95.466,177.954,95.466z M171.454,94.466h6v-6h-6V94.466z"/>
</g>
<g>
	<path fill="#27AEBD" d="M186.954,95.466h-7c-0.276,0-0.5-0.224-0.5-0.5v-7c0-0.276,0.224-0.5,0.5-0.5h7c0.276,0,0.5,0.224,0.5,0.5
		v7C187.454,95.242,187.23,95.466,186.954,95.466z M180.454,94.466h6v-6h-6V94.466z"/>
</g>
<g>
	<rect x="172.954" y="102.966" fill="#27AEBD" width="8" height="8"/>
	<path fill="#27AEBD" d="M181.454,111.466h-9v-9h9V111.466z M173.454,110.466h7v-7h-7V110.466z"/>
</g>
<g>
	<path fill="#27AEBD" d="M184.954,115.466h-8c-0.276,0-0.5-0.224-0.5-0.5v-8c0-0.276,0.224-0.5,0.5-0.5h8c0.276,0,0.5,0.224,0.5,0.5
		v8C185.454,115.242,185.23,115.466,184.954,115.466z M177.454,114.466h7v-7h-7V114.466z"/>
</g>
<g>
	<path fill="#27AEBD" d="M185.954,99.466h-14c-0.276,0-0.5-0.224-0.5-0.5s0.224-0.5,0.5-0.5h14c0.276,0,0.5,0.224,0.5,0.5
		S186.23,99.466,185.954,99.466z"/>
</g>
<g>
	<path fill="#27AEBD" d="M185.954,75.466h-14c-0.276,0-0.5-0.224-0.5-0.5s0.224-0.5,0.5-0.5h14c0.276,0,0.5,0.224,0.5,0.5
		S186.23,75.466,185.954,75.466z"/>
</g>
<g>
	<path fill="#27AEBD" d="M184.954,123.466h-12c-0.276,0-0.5-0.224-0.5-0.5v-3c0-0.276,0.224-0.5,0.5-0.5h12
		c0.276,0,0.5,0.224,0.5,0.5v3C185.454,123.242,185.23,123.466,184.954,123.466z M173.454,122.466h11v-2h-11V122.466z"/>
</g>
<g>
	<rect x="176.454" y="119.966" fill="#27AEBD" width="1" height="3"/>
</g>
<g>
	<rect x="180.454" y="119.966" fill="#27AEBD" width="1" height="3"/>
</g>
<g>
	<path fill="#27AEBD" d="M184.954,129.466h-12c-0.276,0-0.5-0.224-0.5-0.5v-3c0-0.276,0.224-0.5,0.5-0.5h12
		c0.276,0,0.5,0.224,0.5,0.5v3C185.454,129.242,185.23,129.466,184.954,129.466z M173.454,128.466h11v-2h-11V128.466z"/>
</g>
<g>
	<rect x="176.454" y="125.966" fill="#27AEBD" width="1" height="3"/>
</g>
<g>
	<rect x="180.454" y="125.966" fill="#27AEBD" width="1" height="3"/>
</g>
<g opacity="0.5">
	<g>
		<path fill="#27AEBD" d="M319.643,36.402v91h-111v-91H319.643 M320.643,35.402h-113v93h113V35.402L320.643,35.402z"/>
	</g>
</g>
<g>
	<g>
		<g>
			<path fill="#0F8694" d="M274.979,75.534c-0.134,0-0.266-0.054-0.363-0.156c-0.148-0.156-0.18-0.391-0.078-0.581l3.305-6.138
				c-2.766-2.345-4.343-5.453-4.343-8.587c0-6.799,6.729-12.33,15-12.33s15,5.531,15,12.33s-6.729,12.33-15,12.33
				c-1.906,0-3.646-0.434-4.982-0.834l-8.326,3.918C275.124,75.518,275.051,75.534,274.979,75.534z M288.5,48.742
				c-7.72,0-14,5.083-14,11.33c0,2.948,1.564,5.89,4.291,8.071c0.188,0.151,0.242,0.415,0.128,0.628l-2.781,5.165l7.128-3.354
				c0.111-0.054,0.239-0.062,0.359-0.026c1.292,0.395,3.013,0.847,4.875,0.847c7.72,0,14-5.083,14-11.33S296.22,48.742,288.5,48.742
				z"/>
		</g>
	</g>
</g>
<g>
	<g>
		<g>
			<path fill="#0F8694" d="M245.245,75.374h-19c-0.276,0-0.5-0.224-0.5-0.5v-5.5c0-1.273,5.599-3.736,7-4.332v-1.875
				c-0.464-0.317-1.231-1.13-1.318-3.056c-0.519-0.298-0.816-1.056-0.816-1.794c0-0.402,0.093-0.76,0.268-1.032
				c0.106-0.163,0.237-0.294,0.392-0.388c-0.001-0.002-0.002-0.003-0.002-0.003c-0.353-0.832-0.886-2.088-0.376-2.856
				c0.174-0.264,0.536-0.583,1.328-0.521c0.649-1.349,2.561-1.84,4.112-1.84c1.707,0,3.849,0.595,4.268,2.271
				c0.304,1.215-0.136,2.315-0.419,2.961c0.141,0.093,0.263,0.218,0.36,0.373c0.169,0.268,0.258,0.618,0.258,1.014
				c0,0.747-0.3,1.514-0.822,1.814c-0.08,1.933-0.789,2.737-1.231,3.054v1.878c1.401,0.596,7,3.059,7,4.332v5.5
				C245.745,75.15,245.522,75.374,245.245,75.374z M226.745,74.374h18v-4.921c-0.388-0.537-3.436-2.314-6.686-3.615
				c-0.19-0.075-0.314-0.26-0.314-0.464v-2.5c0-0.215,0.137-0.405,0.34-0.474l0,0c-0.003,0,0.9-0.413,0.9-2.657
				c0-0.276,0.224-0.5,0.5-0.5c0.122-0.051,0.396-0.647,0.293-1.195c-0.062-0.326-0.19-0.326-0.253-0.326
				c-0.276,0-0.5-0.224-0.5-0.5c0-0.173,0.071-0.334,0.19-0.601c0.244-0.551,0.654-1.473,0.414-2.431
				c-0.26-1.039-1.891-1.513-3.297-1.513c-1.406,0-3.037,0.474-3.297,1.513c-0.064,0.26-0.321,0.426-0.585,0.369
				c-0.161-0.033-0.301-0.05-0.421-0.05c-0.06,0-0.255,0.006-0.305,0.08c-0.212,0.321,0.296,1.519,0.463,1.912
				c0.165,0.388,0.231,0.552,0.231,0.72c0,0.276-0.224,0.5-0.5,0.5c-0.072,0-0.222,0-0.287,0.35c-0.102,0.549,0.163,1.121,0.3,1.174
				c0.276,0,0.487,0.222,0.487,0.498c0,2.251,0.98,2.655,0.99,2.659c0.193,0.074,0.336,0.265,0.336,0.472v2.5
				c0,0.204-0.124,0.389-0.315,0.464c-3.25,1.301-6.298,3.078-6.685,3.615v4.921H226.745z"/>
		</g>
	</g>
	<g>
		<g>
			<path fill="#0F8694" d="M255.245,75.374h-7c-0.276,0-0.5-0.224-0.5-0.5s0.224-0.5,0.5-0.5h6.5v-5.052
				c-0.332-0.247-1.646-0.651-2.62-0.951c-0.982-0.303-2.095-0.645-3.065-1.033c-0.189-0.075-0.314-0.26-0.314-0.464v-2
				c0-0.225,0.149-0.422,0.366-0.481c0.045-0.014,1.221-0.39,1.221-2.127c0-0.248,0.181-0.454,0.418-0.493
				c0.093-0.118,0.232-0.522,0.214-1.001c-0.013-0.332-0.101-0.505-0.139-0.533c-0.276,0-0.493-0.219-0.493-0.495
				c0-0.188,0.085-0.334,0.225-0.576c0.244-0.42,0.653-1.123,0.432-1.787c-0.208-0.624-1.334-1.077-2.678-1.077
				s-2.47,0.453-2.678,1.077c-0.08,0.239-0.321,0.385-0.575,0.332c-0.357-0.073-0.491-0.021-0.508-0.003
				c-0.063,0.075-0.107,0.365,0.314,1.461c0.108,0.282,0.163,0.425,0.163,0.573c0,0.133-0.053,0.26-0.146,0.354
				c-0.094,0.094-0.221,0.146-0.354,0.146c-0.028,0.014-0.124,0.146-0.143,0.482c-0.027,0.479,0.119,0.921,0.222,1.046
				c0.239,0.038,0.421,0.245,0.421,0.494c0,1.76,1.328,2.121,1.342,2.124c0.222,0.057,0.376,0.256,0.376,0.484v1.5
				c0,0.276-0.224,0.5-0.5,0.5s-0.5-0.224-0.5-0.5V65.22c-0.69-0.325-1.584-1.125-1.704-2.613c-0.435-0.314-0.659-1.044-0.659-1.768
				c0-0.269,0.035-0.659,0.205-0.99c0.083-0.16,0.19-0.292,0.316-0.392c-0.263-0.684-0.651-1.764-0.116-2.395
				c0.24-0.284,0.602-0.416,1.078-0.384c0.627-1.007,2.191-1.376,3.445-1.376c1.402,0,3.193,0.461,3.627,1.761
				c0.328,0.986-0.125,1.917-0.426,2.449c0.1,0.094,0.186,0.21,0.253,0.347c0.166,0.333,0.201,0.725,0.201,0.994
				c0,0.714-0.22,1.435-0.645,1.749c-0.114,1.619-1.044,2.326-1.575,2.602v1.328c0.858,0.324,1.816,0.619,2.674,0.883
				c2.366,0.728,3.326,1.053,3.326,1.785v5.674C255.745,75.15,255.522,75.374,255.245,75.374z"/>
		</g>
	</g>
</g>
<g>
	<g>
		<g>
			<path fill="#0F8694" d="M229.997,107.389c-0.612,0-2.473-0.11-3.784-1.341c-0.887-0.833-1.337-1.995-1.337-3.454
				c0-1.519,0.676-2.938,1.854-3.896c1.034-0.84,2.336-1.234,3.649-1.103c0.534-4.451,4.328-7.863,8.866-7.863
				c3.322,0,6.4,1.886,7.931,4.831c1.669,0.019,3.235,0.659,4.44,1.82c1.29,1.243,2,2.913,2,4.703c0,5.717-5.825,6.291-5.884,6.296
				l-1.879,0.002c-0.276,0-0.5-0.224-0.5-0.5s0.224-0.5,0.5-0.5h1.835c0.158-0.017,4.928-0.506,4.928-5.298
				c0-1.516-0.602-2.93-1.693-3.983c-1.086-1.047-2.51-1.602-4.035-1.536l-0.329,0.012l-0.142-0.298
				c-1.31-2.763-4.125-4.549-7.171-4.549c-4.192,0-7.67,3.279-7.917,7.466l-0.034,0.579l-0.567-0.119
				c-1.191-0.25-2.422,0.049-3.366,0.816c-0.943,0.767-1.484,1.903-1.484,3.12c0,1.169,0.342,2.084,1.018,2.721
				c1.249,1.178,3.258,1.067,3.276,1.07l2.435-0.001c0.276,0,0.5,0.224,0.5,0.5s-0.224,0.5-0.5,0.5H230.2
				C230.189,107.385,230.117,107.389,229.997,107.389z"/>
		</g>
	</g>
	<g>
		<g>
			<path fill="#0F8694" d="M239.376,114.384c-0.276,0-0.5-0.224-0.5-0.5v-12.608c0-0.276,0.224-0.5,0.5-0.5s0.5,0.224,0.5,0.5
				v12.608C239.876,114.16,239.652,114.384,239.376,114.384z"/>
		</g>
	</g>
	<g>
		<g>
			<path fill="#0F8694" d="M243.376,105.695c-0.128,0-0.256-0.049-0.354-0.146l-3.646-3.646l-3.646,3.646
				c-0.195,0.195-0.512,0.195-0.707,0s-0.195-0.512,0-0.707l4-4c0.195-0.195,0.512-0.195,0.707,0l4,4
				c0.195,0.195,0.195,0.512,0,0.707C243.632,105.646,243.504,105.695,243.376,105.695z"/>
		</g>
	</g>
</g>
<g>
	<g>
		<g>
			<path fill="#0F8694" d="M291,116.089h-5c-0.276,0-0.5-0.224-0.5-0.5v-3.769c-0.175-0.067-0.401-0.147-0.635-0.229
				c-0.581-0.204-1.278-0.449-1.853-0.741l-2.628,2.629c-0.195,0.195-0.512,0.195-0.707,0l-3.567-3.565
				c-0.094-0.094-0.146-0.221-0.146-0.354c0-0.133,0.053-0.26,0.146-0.354l2.63-2.631c-0.517-1.025-0.864-2.477-1.062-3.486H274
				c-0.276,0-0.5-0.224-0.5-0.5v-4c0-0.276,0.224-0.5,0.5-0.5h3.769c0.067-0.175,0.147-0.401,0.229-0.636
				c0.204-0.58,0.449-1.277,0.74-1.852l-2.629-2.629c-0.094-0.094-0.146-0.221-0.146-0.354c0-0.133,0.053-0.26,0.146-0.354
				l3.567-3.566c0.195-0.195,0.512-0.195,0.707,0l2.629,2.629c0.576-0.292,1.274-0.537,1.855-0.741
				c0.232-0.082,0.458-0.161,0.632-0.229v-3.77c0-0.276,0.224-0.5,0.5-0.5h5c0.276,0,0.5,0.224,0.5,0.5v3.77
				c0.174,0.068,0.399,0.146,0.632,0.229c0.581,0.204,1.278,0.449,1.854,0.741l2.63-2.629c0.195-0.195,0.512-0.195,0.707,0
				l3.567,3.566c0.094,0.094,0.146,0.221,0.146,0.354c0,0.133-0.053,0.26-0.146,0.354l-2.637,2.637
				c0.213,0.476,0.395,1.097,0.561,1.659c0.078,0.266,0.177,0.599,0.255,0.82H303c0.276,0,0.5,0.224,0.5,0.5v4
				c0,0.276-0.224,0.5-0.5,0.5h-3.648c-0.246,1.956-0.618,2.728-1.08,3.499l2.617,2.618c0.195,0.195,0.195,0.512,0,0.707
				l-3.565,3.565c-0.195,0.195-0.512,0.195-0.707,0l-2.631-2.628c-0.574,0.292-1.271,0.536-1.851,0.74
				c-0.234,0.082-0.461,0.162-0.636,0.229v3.769C291.5,115.865,291.276,116.089,291,116.089z M286.5,115.089h4v-3.593
				c0-0.183,0.1-0.352,0.261-0.438c0.222-0.121,0.584-0.249,1.043-0.41c0.659-0.231,1.479-0.52,2.009-0.844
				c0.197-0.12,0.449-0.091,0.614,0.073l2.544,2.541l2.858-2.858l-2.541-2.543c-0.163-0.163-0.193-0.417-0.073-0.614
				c0.566-0.926,0.948-1.549,1.195-3.866c0.027-0.255,0.241-0.447,0.497-0.447h3.593v-3h-3.438c-0.076,0.04-0.156,0.065-0.229,0.065
				h-0.001c-0.507,0-0.645-0.47-0.979-1.604c-0.184-0.625-0.413-1.404-0.64-1.775c-0.12-0.197-0.09-0.451,0.073-0.614l2.541-2.541
				l-2.86-2.859l-2.542,2.542c-0.165,0.163-0.417,0.19-0.614,0.073c-0.531-0.324-1.353-0.612-2.012-0.845
				c-0.458-0.16-0.818-0.287-1.04-0.407c-0.16-0.088-0.261-0.256-0.261-0.439v-3.595h-4v3.595c0,0.184-0.101,0.352-0.261,0.439
				c-0.222,0.12-0.583,0.247-1.04,0.407c-0.66,0.232-1.482,0.521-2.013,0.845c-0.197,0.117-0.45,0.09-0.614-0.073l-2.542-2.542
				l-2.86,2.859l2.542,2.542c0.163,0.163,0.193,0.417,0.073,0.614c-0.323,0.529-0.611,1.35-0.844,2.009
				c-0.161,0.46-0.289,0.822-0.41,1.044c-0.087,0.161-0.256,0.261-0.439,0.261h-3.59v3h3.593c0.242,0,0.45,0.174,0.492,0.412
				c0.31,1.739,0.747,3.161,1.2,3.901c0.12,0.197,0.09,0.451-0.073,0.614l-2.542,2.543l2.86,2.858l2.541-2.542
				c0.163-0.165,0.417-0.192,0.614-0.073c0.53,0.324,1.352,0.613,2.011,0.845c0.459,0.161,0.822,0.289,1.043,0.41
				c0.161,0.087,0.261,0.256,0.261,0.438L286.5,115.089L286.5,115.089z"/>
		</g>
	</g>
	<g>
		<g>
			<path fill="#0F8694" d="M288.5,107.089c-3.309,0-6-2.691-6-6s2.691-6,6-6s6,2.691,6,6S291.809,107.089,288.5,107.089z
				 M288.5,96.089c-2.757,0-5,2.243-5,5s2.243,5,5,5s5-2.243,5-5S291.257,96.089,288.5,96.089z"/>
		</g>
	</g>
</g>
</svg>
