<?xml version="1.0" encoding="UTF-8" standalone="no"?>
<!-- Created with Inkscape (http://www.inkscape.org/) -->

<svg
   xmlns:dc="http://purl.org/dc/elements/1.1/"
   xmlns:cc="http://creativecommons.org/ns#"
   xmlns:rdf="http://www.w3.org/1999/02/22-rdf-syntax-ns#"
   xmlns:svg="http://www.w3.org/2000/svg"
   xmlns="http://www.w3.org/2000/svg"
   xmlns:sodipodi="http://sodipodi.sourceforge.net/DTD/sodipodi-0.dtd"
   xmlns:inkscape="http://www.inkscape.org/namespaces/inkscape"
   width="64px"
   height="64px"
   id="svg4565"
   version="1.1"
   inkscape:version="0.48.4 r9939"
   sodipodi:docname="New document 12">
  <defs
     id="defs4567" />
  <sodipodi:namedview
     id="base"
     pagecolor="#ffffff"
     bordercolor="#666666"
     borderopacity="1.0"
     inkscape:pageopacity="0.0"
     inkscape:pageshadow="2"
     inkscape:zoom="5.5"
     inkscape:cx="32"
     inkscape:cy="32"
     inkscape:current-layer="layer1"
     showgrid="true"
     inkscape:document-units="px"
     inkscape:grid-bbox="true"
     inkscape:window-width="631"
     inkscape:window-height="618"
     inkscape:window-x="519"
     inkscape:window-y="340"
     inkscape:window-maximized="0" />
  <metadata
     id="metadata4570">
    <rdf:RDF>
      <cc:Work
         rdf:about="">
        <dc:format>image/svg+xml</dc:format>
        <dc:type
           rdf:resource="http://purl.org/dc/dcmitype/StillImage" />
        <dc:title></dc:title>
      </cc:Work>
    </rdf:RDF>
  </metadata>
  <g
     id="layer1"
     inkscape:label="Layer 1"
     inkscape:groupmode="layer">
    <g
       transform="matrix(1.3239426,0,0,1.3356644,-622.04134,-227.11756)"
       id="g3134">
      <g
         id="g3136">
        <path
           style="fill:#0f8694"
           inkscape:connector-curvature="0"
           d="m 501.738,207.432 h -14.907 c -2.092,0 -3.794,-1.703 -3.794,-3.795 v -15.839 c 0,-0.552 0.447,-1 1,-1 h 20.496 c 0.553,0 1,0.448 1,1 v 15.839 c 0,2.092 -1.702,3.795 -3.795,3.795 z m -16.701,-18.634 v 14.839 c 0,0.99 0.805,1.795 1.794,1.795 h 14.907 c 0.989,0 1.795,-0.805 1.795,-1.795 v -14.839 h -18.496 z"
           id="path3138" />
      </g>
      <g
         id="g3140">
        <path
           style="fill:#0f8694"
           inkscape:connector-curvature="0"
           d="m 504.553,186.004 c -0.005,0 -0.013,0 -0.02,0 h -20.496 c -0.553,0 -1,-0.448 -1,-1 0,-6.203 5.046,-11.249 11.248,-11.249 6.132,0 11.134,4.933 11.246,11.04 0.015,0.067 0.021,0.137 0.021,0.209 10e-4,0.552 -0.447,1 -0.999,1 z m -19.462,-2 h 18.389 c -0.5,-4.631 -4.433,-8.249 -9.194,-8.249 -4.761,0 -8.695,3.617 -9.195,8.249 z"
           id="path3142" />
      </g>
      <g
         id="g3144">
        <path
           style="fill:#0f8694"
           inkscape:connector-curvature="0"
           d="m 498.502,176.163 c -0.078,0 -0.158,-0.018 -0.232,-0.057 -0.244,-0.128 -0.339,-0.43 -0.211,-0.675 l 2.05,-3.914 c 0.129,-0.244 0.433,-0.338 0.676,-0.211 0.244,0.128 0.339,0.43 0.211,0.675 l -2.05,3.914 c -0.091,0.17 -0.264,0.268 -0.444,0.268 z"
           id="path3146" />
      </g>
      <g
         id="g3148">
        <circle
           style="fill:#0f8694"
           sodipodi:ry="0.93199998"
           sodipodi:rx="0.93199998"
           sodipodi:cy="180.198"
           sodipodi:cx="498.229"
           d="m 499.161,180.198 c 0,0.51473 -0.41727,0.932 -0.932,0.932 -0.51473,0 -0.932,-0.41727 -0.932,-0.932 0,-0.51473 0.41727,-0.932 0.932,-0.932 0.51473,0 0.932,0.41727 0.932,0.932 z"
           cx="498.229"
           cy="180.198"
           r="0.93199998"
           id="circle3150" />
      </g>
      <g
         id="g3152">
        <path
           style="fill:#0f8694"
           inkscape:connector-curvature="0"
           d="m 489.626,216.749 c -2.093,0 -3.795,-1.702 -3.795,-3.794 v -6.522 c 0,-0.552 0.447,-1 1,-1 h 5.591 c 0.553,0 1,0.448 1,1 v 6.522 c 0,2.092 -1.703,3.794 -3.796,3.794 z m -1.795,-9.317 v 5.522 c 0,0.989 0.806,1.794 1.795,1.794 0.99,0 1.796,-0.805 1.796,-1.794 v -5.522 h -3.591 z"
           id="path3154" />
      </g>
      <g
         id="g3156">
        <path
           style="fill:#0f8694"
           inkscape:connector-curvature="0"
           d="m 481.242,201.842 c -2.093,0 -3.795,-1.703 -3.795,-3.795 v -7.453 c 0,-2.093 1.702,-3.795 3.795,-3.795 2.093,0 3.795,1.703 3.795,3.795 v 7.453 c 0,2.092 -1.702,3.795 -3.795,3.795 z m 0,-13.044 c -0.989,0 -1.795,0.806 -1.795,1.795 v 7.453 c 0,0.99 0.806,1.795 1.795,1.795 0.989,0 1.795,-0.806 1.795,-1.795 v -7.453 c 0,-0.989 -0.806,-1.795 -1.795,-1.795 z"
           id="path3158" />
      </g>
      <g
         id="g3160">
        <path
           style="fill:#0f8694"
           inkscape:connector-curvature="0"
           d="m 490.068,176.163 c -0.18,0 -0.354,-0.098 -0.443,-0.268 l -2.05,-3.914 c -0.128,-0.245 -0.033,-0.547 0.211,-0.675 0.245,-0.128 0.547,-0.033 0.676,0.211 l 2.05,3.914 c 0.128,0.245 0.033,0.547 -0.211,0.675 -0.074,0.039 -0.155,0.057 -0.233,0.057 z"
           id="path3162" />
      </g>
      <g
         id="g3164">
        <circle
           style="fill:#0f8694"
           sodipodi:ry="0.93199998"
           sodipodi:rx="0.93199998"
           sodipodi:cy="180.198"
           sodipodi:cx="490.34201"
           d="m 491.27401,180.198 c 0,0.51473 -0.41727,0.932 -0.932,0.932 -0.51473,0 -0.932,-0.41727 -0.932,-0.932 0,-0.51473 0.41727,-0.932 0.932,-0.932 0.51473,0 0.932,0.41727 0.932,0.932 z"
           cx="490.34201"
           cy="180.198"
           r="0.93199998"
           id="circle3166" />
      </g>
      <g
         id="g3168">
        <path
           style="fill:#0f8694"
           inkscape:connector-curvature="0"
           d="m 498.944,216.749 c -2.093,0 -3.796,-1.702 -3.796,-3.794 v -6.522 c 0,-0.552 0.447,-1 1,-1 h 5.59 c 0.553,0 1,0.448 1,1 v 6.522 c 0,2.092 -1.702,3.794 -3.794,3.794 z m -1.796,-9.317 v 5.522 c 0,0.989 0.806,1.794 1.796,1.794 0.989,0 1.794,-0.805 1.794,-1.794 v -5.522 h -3.59 z"
           id="path3170" />
      </g>
      <g
         id="g3172">
        <path
           style="fill:#0f8694"
           inkscape:connector-curvature="0"
           d="m 507.328,201.842 c -2.093,0 -3.795,-1.703 -3.795,-3.795 v -7.453 c 0,-2.093 1.702,-3.795 3.795,-3.795 2.093,0 3.795,1.703 3.795,3.795 v 7.453 c 0,2.092 -1.702,3.795 -3.795,3.795 z m 0,-13.044 c -0.989,0 -1.795,0.806 -1.795,1.795 v 7.453 c 0,0.99 0.806,1.795 1.795,1.795 0.989,0 1.795,-0.806 1.795,-1.795 v -7.453 c 0,-0.989 -0.806,-1.795 -1.795,-1.795 z"
           id="path3174" />
      </g>
    </g>
  </g>
</svg>
