<?xml version="1.0" encoding="UTF-8" standalone="no"?>
<!-- Created with Inkscape (http://www.inkscape.org/) -->

<svg
   xmlns:dc="http://purl.org/dc/elements/1.1/"
   xmlns:cc="http://creativecommons.org/ns#"
   xmlns:rdf="http://www.w3.org/1999/02/22-rdf-syntax-ns#"
   xmlns:svg="http://www.w3.org/2000/svg"
   xmlns="http://www.w3.org/2000/svg"
   xmlns:sodipodi="http://sodipodi.sourceforge.net/DTD/sodipodi-0.dtd"
   xmlns:inkscape="http://www.inkscape.org/namespaces/inkscape"
   width="64px"
   height="64px"
   id="svg3649"
   version="1.1"
   inkscape:version="0.48.4 r9939"
   sodipodi:docname="New document 3">
  <defs
     id="defs3651" />
  <sodipodi:namedview
     id="base"
     pagecolor="#ffffff"
     bordercolor="#666666"
     borderopacity="1.0"
     inkscape:pageopacity="0.0"
     inkscape:pageshadow="2"
     inkscape:zoom="5.5"
     inkscape:cx="32"
     inkscape:cy="32"
     inkscape:current-layer="layer1"
     showgrid="true"
     inkscape:document-units="px"
     inkscape:grid-bbox="true"
     inkscape:window-width="1280"
     inkscape:window-height="1000"
     inkscape:window-x="0"
     inkscape:window-y="24"
     inkscape:window-maximized="1" />
  <metadata
     id="metadata3654">
    <rdf:RDF>
      <cc:Work
         rdf:about="">
        <dc:format>image/svg+xml</dc:format>
        <dc:type
           rdf:resource="http://purl.org/dc/dcmitype/StillImage" />
        <dc:title></dc:title>
      </cc:Work>
    </rdf:RDF>
  </metadata>
  <g
     id="layer1"
     inkscape:label="Layer 1"
     inkscape:groupmode="layer">
    <g
       transform="matrix(0.64878488,0,0,0.68956899,-35.401296,-88.310603)"
       id="g3032">
      <g
         id="g3034">
        <path
           style="fill:#0f8694"
           inkscape:connector-curvature="0"
           d="m 109.542,215.902 c -2.66,0 -4.426,-0.34 -4.902,-0.444 h -0.179 c -0.477,0.104 -2.243,0.444 -4.902,0.444 -3.613,0 -7.271,-0.608 -10.87,-1.808 -8.472,-2.824 -10.485,-16.567 -10.821,-19.509 -1.298,-0.827 -4.398,-3.532 -4.398,-10.512 0,-7.83 2.979,-17.284 8.853,-28.099 3.812,-7.019 7.676,-12.359 8.605,-13.614 -0.044,-3.298 0.046,-10.287 1.543,-11.81 0.385,-0.392 0.798,-0.474 1.078,-0.474 2.043,0 3.844,4.151 4.856,7.066 h 12.292 c 1.012,-2.915 2.813,-7.066 4.856,-7.066 0.279,0 0.693,0.082 1.078,0.474 1.497,1.523 1.587,8.512 1.543,11.81 0.929,1.255 4.793,6.595 8.605,13.614 5.875,10.815 8.853,20.269 8.853,28.099 0,6.98 -3.1,9.686 -4.399,10.512 -0.336,2.942 -2.349,16.685 -10.821,19.509 -3.6,1.2 -7.257,1.808 -10.87,1.808 z m -5.194,-2.444 h 0.403 c 0.08,0 0.16,0.01 0.237,0.029 0.017,0.004 1.747,0.416 4.553,0.416 3.398,0 6.842,-0.574 10.237,-1.706 8.055,-2.685 9.503,-18.162 9.517,-18.318 0.032,-0.37 0.267,-0.692 0.61,-0.835 0.142,-0.063 3.727,-1.75 3.727,-8.971 0,-17.918 -17.087,-40.555 -17.259,-40.782 -0.136,-0.179 -0.208,-0.398 -0.205,-0.623 0.073,-4.197 -0.235,-9.105 -0.812,-10.454 -0.708,0.67 -2.068,3.434 -2.991,6.241 -0.135,0.41 -0.518,0.688 -0.95,0.688 H 97.686 c -0.432,0 -0.815,-0.277 -0.95,-0.688 -0.909,-2.763 -2.241,-5.484 -3.002,-6.213 -0.57,1.386 -0.874,6.257 -0.801,10.426 0.004,0.225 -0.068,0.445 -0.205,0.624 -0.172,0.227 -17.259,22.864 -17.259,40.782 0,7.221 3.584,8.907 3.737,8.975 0.331,0.148 0.567,0.469 0.599,0.831 0.014,0.156 1.462,15.633 9.517,18.318 3.395,1.132 6.839,1.706 10.237,1.706 2.806,0 4.536,-0.412 4.553,-0.416 0.076,-0.02 0.157,-0.03 0.236,-0.03 z"
           id="path3036" />
      </g>
      <g
         id="g3038">
        <path
           style="fill:#0f8694"
           inkscape:connector-curvature="0"
           d="m 104.055,208.68 c -11.958,0 -21.688,-9.729 -21.688,-21.688 0,-11.959 9.729,-21.688 21.688,-21.688 11.959,0 21.688,9.729 21.688,21.688 0,11.959 -9.729,21.688 -21.688,21.688 z m 0,-42.375 c -11.407,0 -20.688,9.281 -20.688,20.688 0,11.407 9.28,20.688 20.688,20.688 11.408,0 20.688,-9.28 20.688,-20.688 0,-11.408 -9.281,-20.688 -20.688,-20.688 z"
           id="path3040" />
      </g>
      <g
         id="g3042">
        <path
           style="fill:#0f8694"
           inkscape:connector-curvature="0"
           d="m 78.808,194.466 c -0.252,0 -0.469,-0.19 -0.497,-0.446 -0.071,-0.648 -1.693,-15.969 1.657,-23.279 0.115,-0.25 0.41,-0.36 0.663,-0.246 0.251,0.115 0.361,0.412 0.246,0.663 -3.235,7.059 -1.589,22.597 -1.572,22.753 0.03,0.274 -0.168,0.521 -0.443,0.551 -0.018,0.003 -0.036,0.004 -0.054,0.004 z"
           id="path3044" />
      </g>
      <g
         id="g3046">
        <path
           style="fill:#0f8694"
           inkscape:connector-curvature="0"
           d="m 130.292,194.466 c -0.018,0 -0.036,-0.001 -0.055,-0.003 -0.274,-0.03 -0.473,-0.277 -0.443,-0.551 0.017,-0.156 1.663,-15.695 -1.572,-22.753 -0.115,-0.251 -0.005,-0.548 0.246,-0.663 0.253,-0.114 0.548,-0.004 0.663,0.246 3.35,7.31 1.728,22.63 1.657,23.279 -0.028,0.255 -0.245,0.445 -0.496,0.445 z"
           id="path3048" />
      </g>
      <g
         id="g3050">
        <path
           style="fill:#0f8694"
           inkscape:connector-curvature="0"
           d="m 95.363,151.664 c -1.779,0 -3.226,-1.447 -3.226,-3.226 0,-1.779 1.447,-3.226 3.226,-3.226 1.779,0 3.226,1.447 3.226,3.226 0,1.779 -1.447,3.226 -3.226,3.226 z m 0,-5.451 c -1.227,0 -2.226,0.999 -2.226,2.226 0,1.227 0.999,2.226 2.226,2.226 1.227,0 2.226,-0.999 2.226,-2.226 0,-1.227 -0.999,-2.226 -2.226,-2.226 z"
           id="path3052" />
      </g>
      <g
         id="g3054">
        <path
           style="fill:#0f8694"
           inkscape:connector-curvature="0"
           d="m 104.044,151.463 c -0.044,0 -0.088,-0.006 -0.13,-0.017 l -3.735,-1.01 c -0.218,-0.059 -0.37,-0.257 -0.37,-0.483 v -1.514 c 0,-0.276 0.224,-0.5 0.5,-0.5 h 7.471 c 0.276,0 0.5,0.224 0.5,0.5 v 1.514 c 0,0.226 -0.151,0.424 -0.37,0.483 l -3.735,1.01 c -0.043,0.011 -0.087,0.017 -0.131,0.017 z m -3.235,-1.893 3.235,0.875 3.235,-0.875 v -0.631 h -6.471 l 10e-4,0.631 0,0 z"
           id="path3056" />
      </g>
      <g
         id="g3058">
        <path
           style="fill:#0f8694"
           inkscape:connector-curvature="0"
           d="m 72.852,160.905 c -0.239,0 -0.45,-0.172 -0.492,-0.415 -0.047,-0.272 0.136,-0.531 0.408,-0.578 l 18.473,-3.184 c 0.271,-0.045 0.53,0.136 0.578,0.408 0.047,0.272 -0.136,0.531 -0.408,0.578 l -18.473,3.184 c -0.03,0.004 -0.058,0.007 -0.086,0.007 z"
           id="path3060" />
      </g>
      <g
         id="g3062">
        <path
           style="fill:#0f8694"
           inkscape:connector-curvature="0"
           d="m 88.988,155.299 c -0.01,0 -0.021,0 -0.032,-0.001 L 75.95,154.49 c -0.275,-0.017 -0.485,-0.254 -0.468,-0.53 0.017,-0.276 0.243,-0.485 0.53,-0.468 l 13.006,0.808 c 0.276,0.017 0.485,0.254 0.468,0.53 -0.016,0.265 -0.236,0.469 -0.498,0.469 z"
           id="path3064" />
      </g>
      <g
         id="g3066">
        <path
           style="fill:#0f8694"
           inkscape:connector-curvature="0"
           d="m 88.987,153.279 c -0.066,0 -0.133,-0.013 -0.198,-0.041 l -8.161,-3.533 c -0.253,-0.11 -0.37,-0.404 -0.26,-0.658 0.11,-0.252 0.402,-0.369 0.658,-0.26 l 8.161,3.533 c 0.253,0.11 0.37,0.404 0.26,0.658 -0.082,0.188 -0.266,0.301 -0.46,0.301 z"
           id="path3068" />
      </g>
      <g
         id="g3070">
        <path
           style="fill:#0f8694"
           inkscape:connector-curvature="0"
           d="m 136.045,160.905 c -0.028,0 -0.057,-0.002 -0.085,-0.007 l -18.473,-3.184 c -0.272,-0.047 -0.455,-0.306 -0.408,-0.578 0.047,-0.272 0.308,-0.452 0.578,-0.408 l 18.473,3.184 c 0.272,0.047 0.455,0.306 0.408,0.578 -0.042,0.243 -0.254,0.415 -0.493,0.415 z"
           id="path3072" />
      </g>
      <g
         id="g3074">
        <path
           style="fill:#0f8694"
           inkscape:connector-curvature="0"
           d="m 119.909,155.299 c -0.262,0 -0.482,-0.204 -0.499,-0.469 -0.017,-0.275 0.192,-0.513 0.468,-0.53 l 13.006,-0.808 c 0.285,-0.005 0.513,0.193 0.53,0.468 0.017,0.276 -0.192,0.513 -0.468,0.53 l -13.006,0.808 c -0.01,0 -0.021,0.001 -0.031,0.001 z"
           id="path3076" />
      </g>
      <g
         id="g3078">
        <path
           style="fill:#0f8694"
           inkscape:connector-curvature="0"
           d="m 119.91,153.279 c -0.193,0 -0.377,-0.113 -0.459,-0.301 -0.109,-0.253 0.007,-0.548 0.26,-0.658 l 8.161,-3.533 c 0.254,-0.109 0.548,0.008 0.658,0.26 0.109,0.253 -0.007,0.548 -0.26,0.658 l -8.161,3.533 c -0.066,0.028 -0.133,0.041 -0.199,0.041 z"
           id="path3080" />
      </g>
      <g
         id="g3082">
        <path
           style="fill:#0f8694"
           inkscape:connector-curvature="0"
           d="m 102.848,156.033 c -0.024,0 -0.048,-10e-4 -0.072,-0.005 -0.274,-0.035 -0.461,-0.312 -0.427,-0.586 0.015,-0.117 0.204,-1.143 2.201,-1.143 0.276,0 0.5,0.224 0.5,0.5 0,0.276 -0.224,0.5 -0.5,0.5 -1.05,0 -1.219,0.321 -1.221,0.324 -0.032,0.249 -0.238,0.41 -0.481,0.41 z"
           id="path3084" />
      </g>
      <g
         id="g3086">
        <path
           style="fill:#0f8694"
           inkscape:connector-curvature="0"
           d="m 95.363,149.746 c -0.721,0 -1.307,-0.586 -1.307,-1.308 0,-0.721 0.586,-1.307 1.307,-1.307 0.721,0 1.307,0.586 1.307,1.307 0,0.722 -0.586,1.308 -1.307,1.308 z m 0,-1.614 c -0.169,0 -0.307,0.138 -0.307,0.307 0,0.169 0.138,0.308 0.307,0.308 0.169,0 0.307,-0.138 0.307,-0.308 0,-0.17 -0.137,-0.307 -0.307,-0.307 z"
           id="path3088" />
      </g>
      <g
         id="g3090">
        <path
           style="fill:#0f8694"
           inkscape:connector-curvature="0"
           d="m 113.736,151.664 c -1.779,0 -3.226,-1.447 -3.226,-3.226 0,-1.779 1.447,-3.226 3.226,-3.226 1.779,0 3.226,1.447 3.226,3.226 0,1.779 -1.447,3.226 -3.226,3.226 z m 0,-5.451 c -1.227,0 -2.226,0.999 -2.226,2.226 0,1.227 0.999,2.226 2.226,2.226 1.227,0 2.226,-0.999 2.226,-2.226 0,-1.227 -0.999,-2.226 -2.226,-2.226 z"
           id="path3092" />
      </g>
      <g
         id="g3094">
        <path
           style="fill:#0f8694"
           inkscape:connector-curvature="0"
           d="m 113.736,149.746 c -0.721,0 -1.307,-0.586 -1.307,-1.308 0,-0.721 0.586,-1.307 1.307,-1.307 0.721,0 1.308,0.586 1.308,1.307 -10e-4,0.722 -0.587,1.308 -1.308,1.308 z m 0,-1.614 c -0.169,0 -0.307,0.138 -0.307,0.307 0,0.169 0.138,0.308 0.307,0.308 0.169,0 0.308,-0.138 0.308,-0.308 0,-0.17 -0.139,-0.307 -0.308,-0.307 z"
           id="path3096" />
      </g>
      <g
         id="g3098">
        <path
           style="fill:#0f8694"
           inkscape:connector-curvature="0"
           d="m 93.648,173.489 c -0.184,0 -0.36,-0.101 -0.448,-0.276 -0.124,-0.247 -0.023,-0.547 0.224,-0.671 l 2.423,-1.211 c 0.141,-0.07 0.307,-0.07 0.447,0 l 2.422,1.211 c 0.247,0.124 0.347,0.424 0.224,0.671 -0.125,0.248 -0.424,0.347 -0.671,0.224 l -2.199,-1.1 -2.199,1.1 c -0.072,0.035 -0.148,0.052 -0.223,0.052 z"
           id="path3100" />
      </g>
      <g
         id="g3102">
        <path
           style="fill:#0f8694"
           inkscape:connector-curvature="0"
           d="m 106.467,173.489 c -0.075,0 -0.151,-0.017 -0.223,-0.053 l -2.199,-1.1 -2.199,1.1 c -0.248,0.123 -0.547,0.024 -0.671,-0.224 -0.124,-0.247 -0.023,-0.547 0.224,-0.671 l 2.423,-1.211 c 0.141,-0.07 0.307,-0.07 0.447,0 l 2.423,1.211 c 0.247,0.124 0.347,0.424 0.224,0.671 -0.089,0.176 -0.266,0.277 -0.449,0.277 z"
           id="path3104" />
      </g>
      <g
         id="g3106">
        <path
           style="fill:#0f8694"
           inkscape:connector-curvature="0"
           d="m 114.441,173.489 c -0.075,0 -0.151,-0.017 -0.223,-0.053 l -2.199,-1.1 -2.199,1.1 c -0.247,0.123 -0.547,0.024 -0.671,-0.224 -0.124,-0.247 -0.023,-0.547 0.224,-0.671 l 2.422,-1.211 c 0.141,-0.07 0.307,-0.07 0.447,0 l 2.423,1.211 c 0.247,0.124 0.347,0.424 0.224,0.671 -0.088,0.176 -0.264,0.277 -0.448,0.277 z"
           id="path3108" />
      </g>
      <g
         id="g3110">
        <path
           style="fill:#0f8694"
           inkscape:connector-curvature="0"
           d="m 93.647,179.576 c -0.075,0 -0.151,-0.017 -0.223,-0.053 l -2.199,-1.1 -2.199,1.1 c -0.248,0.123 -0.547,0.023 -0.671,-0.224 -0.124,-0.247 -0.023,-0.547 0.224,-0.671 l 2.423,-1.211 c 0.141,-0.07 0.307,-0.07 0.447,0 l 2.423,1.211 c 0.247,0.124 0.347,0.424 0.224,0.671 -0.089,0.176 -0.265,0.277 -0.449,0.277 z"
           id="path3112" />
      </g>
      <g
         id="g3114">
        <path
           style="fill:#0f8694"
           inkscape:connector-curvature="0"
           d="m 96.777,179.576 c -0.184,0 -0.36,-0.101 -0.448,-0.276 -0.124,-0.247 -0.023,-0.547 0.224,-0.671 l 2.423,-1.211 c 0.141,-0.07 0.307,-0.07 0.447,0 l 2.422,1.211 c 0.247,0.124 0.347,0.424 0.224,0.671 -0.125,0.247 -0.424,0.347 -0.671,0.224 l -2.199,-1.1 -2.199,1.1 c -0.072,0.035 -0.148,0.052 -0.223,0.052 z"
           id="path3116" />
      </g>
      <g
         id="g3118">
        <path
           style="fill:#0f8694"
           inkscape:connector-curvature="0"
           d="m 109.596,179.576 c -0.075,0 -0.151,-0.017 -0.223,-0.053 l -2.199,-1.1 -2.199,1.1 c -0.248,0.123 -0.547,0.023 -0.671,-0.224 -0.124,-0.247 -0.023,-0.547 0.224,-0.671 l 2.423,-1.211 c 0.141,-0.07 0.307,-0.07 0.447,0 l 2.423,1.211 c 0.247,0.124 0.347,0.424 0.224,0.671 -0.089,0.176 -0.266,0.277 -0.449,0.277 z"
           id="path3120" />
      </g>
      <g
         id="g3122">
        <path
           style="fill:#0f8694"
           inkscape:connector-curvature="0"
           d="m 117.571,179.576 c -0.075,0 -0.151,-0.017 -0.223,-0.053 l -2.199,-1.1 -2.199,1.1 c -0.248,0.123 -0.547,0.023 -0.671,-0.224 -0.124,-0.247 -0.023,-0.547 0.224,-0.671 l 2.423,-1.211 c 0.141,-0.07 0.307,-0.07 0.447,0 l 2.423,1.211 c 0.247,0.124 0.347,0.424 0.224,0.671 -0.089,0.176 -0.265,0.277 -0.449,0.277 z"
           id="path3124" />
      </g>
      <g
         id="g3126">
        <path
           style="fill:#0f8694"
           inkscape:connector-curvature="0"
           d="M 97.636,216.759 H 81.231 c -0.552,0 -1,-0.448 -1,-1 0,-1.583 2.559,-2.924 7.605,-3.983 0.544,-0.113 1.071,0.233 1.184,0.773 0.114,0.541 -0.232,1.071 -0.773,1.184 -1.332,0.28 -2.656,0.651 -3.728,1.026 h 13.115 c 0.552,0 1,0.448 1,1 0,0.552 -0.446,1 -0.998,1 z"
           id="path3128" />
      </g>
      <g
         id="g3130">
        <path
           style="fill:#0f8694"
           inkscape:connector-curvature="0"
           d="M 126.153,216.759 H 109.75 c -0.552,0 -1,-0.448 -1,-1 0,-0.552 0.448,-1 1,-1 h 13.864 c -0.798,-0.372 -1.813,-0.756 -2.827,-1.042 -0.531,-0.149 -0.841,-0.702 -0.692,-1.233 0.148,-0.531 0.699,-0.844 1.232,-0.692 2.176,0.61 5.827,1.938 5.827,3.967 -10e-4,0.552 -0.448,1 -1.001,1 z"
           id="path3132" />
      </g>
    </g>
  </g>
</svg>
